<svg width="80" height="80" viewBox="0 0 80 80" fill="none" xmlns="http://www.w3.org/2000/svg">
<path d="M77.6561 0H52.5518C51.2574 0 50.208 1.04953 50.208 2.34375V77.6562C50.208 78.9505 51.2574 80 52.5518 80H77.6561C78.9505 80 79.9999 78.9505 79.9999 77.6562V2.34375C79.9999 1.04953 78.9505 0 77.6561 0Z" fill="#FFCC75"/>
<path d="M77.6562 0H65.104V80H77.6562C78.9506 80 80 78.9505 80 77.6562V2.34375C80 1.04953 78.9506 0 77.6562 0Z" fill="#FFA836"/>
<path d="M77.6561 45.1877H52.5518C51.2574 45.1877 50.208 46.2372 50.208 47.5314V62.5938C50.208 63.8883 51.2574 64.9375 52.5518 64.9375H77.6561C78.9505 64.9375 79.9999 63.8883 79.9999 62.5938V47.5316C79.9999 46.2372 78.9505 45.1877 77.6561 45.1877Z" fill="#DEF9FF"/>
<path d="M77.6562 45.1877H65.104V64.9375H77.6562C78.9506 64.9375 80 63.8883 80 62.5938V47.5316C80 46.2372 78.9506 45.1877 77.6562 45.1877Z" fill="#A0F2F0"/>
<path d="M52.5518 0H27.4478C26.1534 0 25.104 1.04953 25.104 2.34375V77.6562C25.104 78.9505 26.1534 80 27.4478 80H52.5518C53.8462 80 54.8956 78.9505 54.8956 77.6562V2.34375C54.8956 1.04953 53.8462 0 52.5518 0Z" fill="#86E2E3"/>
<path d="M52.5519 0H40V80H52.5519C53.8463 80 54.8956 78.9505 54.8956 77.6562V2.34375C54.8956 1.04953 53.8463 0 52.5519 0Z" fill="#5BCDD5"/>
<path d="M52.5518 22.5938H27.4478C26.1534 22.5938 25.104 23.6433 25.104 24.9375C25.104 26.232 26.1534 27.2813 27.4478 27.2813H52.5518C53.8462 27.2813 54.8956 26.232 54.8956 24.9375C54.8956 23.6431 53.8462 22.5938 52.5518 22.5938Z" fill="#FFCC75"/>
<path d="M52.5519 22.5938H40V27.2813H52.5519C53.8463 27.2813 54.8956 26.232 54.8956 24.9375C54.8956 23.6431 53.8463 22.5938 52.5519 22.5938Z" fill="#FFA836"/>
<path d="M27.4478 0H2.34375C1.04937 0 0 1.04953 0 2.34375V77.6562C0 78.9505 1.04937 80 2.34375 80H27.4478C28.7422 80 29.7916 78.9505 29.7916 77.6562V2.34375C29.7916 1.04953 28.7422 0 27.4478 0Z" fill="#F1476F"/>
<path d="M27.4478 0H14.8958V80H27.4478C28.7422 80 29.7915 78.9505 29.7915 77.6562V2.34375C29.7915 1.04953 28.7422 0 27.4478 0Z" fill="#BE163A"/>
<path d="M27.4478 15.0621H2.34375C1.04937 15.0621 0 16.1117 0 17.4059V32.4687C0 33.7629 1.04937 34.8124 2.34375 34.8124H27.4478C28.7422 34.8124 29.7916 33.7629 29.7916 32.4687V17.4059C29.7916 16.1117 28.7422 15.0621 27.4478 15.0621Z" fill="#DEF9FF"/>
<path d="M27.4478 15.0621H14.8958V34.8124H27.4478C28.7422 34.8124 29.7915 33.7629 29.7915 32.4687V17.4059C29.7915 16.1117 28.7422 15.0621 27.4478 15.0621Z" fill="#A0F2F0"/>
</svg>
