<svg width="80" height="80" viewBox="0 0 80 80" fill="none" xmlns="http://www.w3.org/2000/svg">
<path d="M75.297 53.0311C65.6404 73.2811 50.7812 77.6562 39.9999 77.6562C27.8592 77.6562 16.4217 71.5938 9.3904 61.7031C2.31259 51.7188 0.624779 39.0625 4.7029 26.9686L5.45306 25.4219C11.1717 11.7811 25.0468 2.34375 39.9999 2.34375C52.1407 2.34375 63.5782 8.40625 70.6095 18.2969C77.6873 28.2812 79.3751 40.9375 75.297 53.0311Z" fill="#65B1FC"/>
<path d="M75.297 53.0311C65.6405 73.2811 50.7813 77.6562 40 77.6562V2.34375C52.1408 2.34375 63.5783 8.40625 70.6095 18.2969C77.6873 28.2812 79.3752 40.9375 75.297 53.0311Z" fill="#1689FC"/>
<path d="M72.5313 16.9373C65.0315 6.43734 52.8907 0 40.0001 0C23.922 0 9.2032 10.0938 3.15633 24.953L2.3593 26.5938C-1.94461 39.6994 -0.26883 52.113 7.46883 63.0623C14.9687 73.5623 27.1095 80 40.0001 80C55.8907 80 70.422 70.1406 76.6563 55.6092L77.3593 54.203C82.0446 40.8719 80.4034 28.0653 72.5313 16.9373ZM11.3126 60.3436C4.65648 50.9686 3.10945 39.1094 6.9532 27.7188L7.56258 26.453C11.3595 17.3592 18.9063 10.3125 27.9062 6.93734C22.2345 14.3438 18.8124 28.7498 19.2345 33.4373C19.1876 33.5781 19.1405 33.7186 19.1405 33.9062C17.9218 49.6092 21.4843 64.7656 28.1874 73.25C21.4845 70.8123 15.5315 66.2969 11.3126 60.3436ZM37.6563 74.8905C36.0159 74.328 34.3751 73.0938 32.828 71.453C26.2657 64.375 22.6563 49.4219 23.8282 34.2811V33.8594C23.8282 33.7186 23.8751 33.5312 23.8751 33.3905C25.2343 18.8123 30.9532 7.3125 37.6563 5.10922V74.8905ZM42.3438 74.8436V5.10922C49.5624 7.49984 55.6096 20.7811 56.3124 36.6248C56.9687 51.2498 53.3126 64.9842 46.9843 71.6406C45.4843 73.1873 43.9377 74.328 42.3438 74.8436ZM73.047 52.2812C67.797 63.3438 60.3907 70.1561 51.8127 73.2031C58.0938 65.2812 61.6563 51.1562 60.9999 36.4375C60.4374 23.9686 56.9218 13.2189 51.8126 6.75C58.5157 9.18734 64.4687 13.7031 68.6874 19.6561C75.3437 29.0311 76.8907 40.8906 73.047 52.2812Z" fill="#96EBE6"/>
<path d="M72.5313 16.9373C65.0314 6.43734 52.8906 0 40 0V80C55.8906 80 70.4219 70.1406 76.6563 55.6092L77.3592 54.203C82.0445 40.8719 80.4033 28.0653 72.5313 16.9373ZM42.3438 74.8436V5.10922C49.5623 7.49984 55.6095 20.7811 56.3123 36.6248C56.9686 51.2498 53.3125 64.9842 46.9842 71.6406C45.4842 73.1873 43.9377 74.328 42.3438 74.8436ZM73.0469 52.2812C67.7969 63.3438 60.3906 70.1561 51.8127 73.2031C58.0938 65.2812 61.6563 51.1562 60.9998 36.4375C60.4373 23.9686 56.9217 13.2189 51.8125 6.75C58.5156 9.18734 64.4686 13.7031 68.6873 19.6561C75.3436 29.0311 76.8906 40.8906 73.0469 52.2812Z" fill="#00C8C8"/>
<path d="M72.8125 23.5938H7.1875C3.29672 23.5938 0 26.7342 0 30.625V49.375C0 53.2655 3.29672 56.4062 7.1875 56.4062H72.8125C76.7033 56.4062 80 53.2655 80 49.375V30.625C80 26.7342 76.7033 23.5938 72.8125 23.5938Z" fill="#0053BF"/>
<path d="M80 30.625V49.375C80 53.2655 76.7033 56.4062 72.8125 56.4062H40V23.5938H72.8125C76.7033 23.5938 80 26.7342 80 30.625Z" fill="#05377F"/>
<path d="M51.4844 36.3436L46.7969 45.7186C46.3751 46.5156 45.5782 47.0312 44.6876 47.0312C43.7969 47.0312 43.0001 46.5156 42.5782 45.7186L40.0001 40.5625L37.4219 45.7186C36.6252 47.3125 33.9999 47.3125 33.203 45.7186L28.5155 36.3436C27.953 35.2186 28.4219 33.8125 29.5938 33.2031C30.7188 32.6406 32.1249 33.1092 32.7343 34.2811L35.3126 39.4375L37.8907 34.2811C38.3127 33.4843 39.1565 33.0623 40.0001 33.0623C40.8437 33.0623 41.6876 33.4843 42.1094 34.2811L44.6876 39.4375L47.2657 34.2811C47.8751 33.1092 49.2813 32.6406 50.4062 33.2031C51.578 33.8125 52.0469 35.2186 51.4844 36.3436Z" fill="#E1F1FA"/>
<path d="M68.125 47.0312C67.2369 47.0312 66.4268 46.53 66.0285 45.7358L63.4375 40.5539L60.8466 45.7358C60.05 47.3242 57.45 47.3242 56.6535 45.7358L52.1629 36.7522C51.8722 36.3952 51.6844 35.9534 51.6524 35.4681C51.57 34.1772 52.4786 33.0672 53.7694 32.9825C54.7491 32.9597 55.7379 33.422 56.159 34.2642L58.75 39.4461L61.341 34.2642C62.1376 32.6758 64.7375 32.6758 65.5341 34.2642L68.125 39.4461L70.716 34.2642C71.2974 33.1037 72.7049 32.6437 73.8608 33.2159C75.019 33.795 75.4882 35.2027 74.9091 36.3608L70.2216 45.7358C69.8233 46.53 69.0132 47.0312 68.125 47.0312Z" fill="#BFE1FF"/>
<path d="M26.0887 32.9733C25.1664 32.9641 24.2623 33.4219 23.8411 34.2642L21.2502 39.4461L18.6592 34.2642C17.815 32.5816 15.3011 32.5942 14.4661 34.2642L11.8751 39.4461L9.28421 34.2642C8.70281 33.1037 7.29296 32.6437 6.13937 33.2159C4.98124 33.795 4.51202 35.2027 5.09109 36.3608L9.77859 45.7358C10.1769 46.53 10.987 47.0312 11.8751 47.0312C12.7633 47.0312 13.5734 46.53 13.9717 45.7358L16.5626 40.5539L19.1536 45.7358C19.5519 46.53 20.362 47.0312 21.2502 47.0312C22.1383 47.0312 22.9484 46.53 23.3467 45.7358L27.7619 36.9055C28.0961 36.5255 28.3112 36.0242 28.3478 35.4681C28.4302 34.1772 27.3797 33.058 26.0887 32.9733Z" fill="#E1F1FA"/>
<path d="M51.4844 36.3436L46.7969 45.7186C46.375 46.5156 45.5781 47.0312 44.6875 47.0312C43.7969 47.0312 43 46.5156 42.5781 45.7186L40 40.5625V33.0623C40.8438 33.0623 41.6875 33.4843 42.1094 34.2811L44.6875 39.4375L47.2656 34.2811C47.875 33.1092 49.2813 32.6406 50.4061 33.2031C51.578 33.8125 52.0469 35.2186 51.4844 36.3436Z" fill="#BFE1FF"/>
</svg>
