<svg width="80" height="80" viewBox="0 0 80 80" fill="none" xmlns="http://www.w3.org/2000/svg">
<path d="M11.7751 10.2975H68.2248V77.6563H11.7751V10.2975Z" fill="#C475D9"/>
<path d="M40 10.2975H68.2249V77.6563H40V10.2975Z" fill="#654285"/>
<path d="M68.2248 80H11.7751C10.4808 80 9.4314 78.9506 9.4314 77.6563V10.2975C9.4314 9.00314 10.4808 7.95377 11.7751 7.95377H68.2248C69.5192 7.95377 70.5686 9.00314 70.5686 10.2975V77.6563C70.5686 78.9506 69.5192 80 68.2248 80ZM14.1189 75.3125H65.8811V12.6413H14.1189V75.3125Z" fill="#FFE645"/>
<path d="M68.2249 7.95377H40V12.6413H65.8811V75.3125H40V80H68.2249C69.5192 80 70.5686 78.9506 70.5686 77.6563V10.2975C70.5686 9.00314 69.5192 7.95377 68.2249 7.95377Z" fill="#FF9300"/>
<path d="M18.9296 50.7411C18.9015 50.6286 18.8735 50.5161 18.8735 50.4317C18.8735 49.3911 20.4699 48.6317 21.6743 48.6317C22.3745 48.6317 22.9346 48.8567 23.1028 49.4473L27.0237 63.8748L30.9167 49.4473C31.0846 48.8567 31.6448 48.6317 32.3449 48.6317C33.5493 48.6317 35.1457 49.3911 35.1457 50.4317C35.1457 50.5161 35.1178 50.6286 35.0898 50.7411L29.8804 67.8966C29.5723 68.8809 28.312 69.3591 27.0237 69.3591C25.7353 69.3591 24.4749 68.8809 24.167 67.8966L18.9296 50.7411Z" fill="#FFE645"/>
<path d="M37.8154 49.9536C37.8154 49.0255 38.9078 48.6317 40 48.6317C41.0923 48.6317 42.1845 49.0255 42.1845 49.9536V67.8403C42.1845 68.7403 41.0922 69.1903 40 69.1903C38.9078 69.1903 37.8154 68.7403 37.8154 67.8403V49.9536Z" fill="#FFE645"/>
<path d="M40 48.6317V69.1903C41.0923 69.1903 42.1845 68.7403 42.1845 67.8403V49.9536C42.1845 49.0255 41.0923 48.6317 40 48.6317Z" fill="#FF9300"/>
<path d="M46.9651 49.9536C46.9651 49.2505 47.6091 48.6317 48.5895 48.6317H54.387C58.0838 48.6317 60.9967 50.3755 60.9967 55.1001V55.2408C60.9967 59.9656 57.972 61.7655 54.107 61.7655H51.3343V67.8401C51.3343 68.7401 50.242 69.1901 49.1496 69.1901C48.0574 69.1901 46.9651 68.7401 46.9651 67.8401V49.9536ZM51.3342 52.4566V58.3908H54.1068C55.6752 58.3908 56.6274 57.4908 56.6274 55.5783V55.2691C56.6274 53.3566 55.6752 52.4566 54.1068 52.4566H51.3342Z" fill="#FF9300"/>
<path d="M48.8603 44.0628H30.9698C29.8289 44.0628 28.8539 43.2414 28.6601 42.117L26.6679 30.5547C26.5178 29.6837 26.8706 28.8023 27.5799 28.2753C28.2895 27.7484 29.2349 27.6653 30.0257 28.0605L35.0592 30.5772L38.6149 28.2067C39.4021 27.682 40.4279 27.682 41.2151 28.2067L44.7709 30.5772L49.8043 28.0605C50.5951 27.6652 51.5407 27.7484 52.25 28.2753C52.9595 28.8023 53.3121 29.6837 53.1621 30.5547L51.17 42.117C50.9764 43.2414 50.0012 44.0628 48.8603 44.0628Z" fill="#FFF566"/>
<path d="M48.9452 44.0628C50.0861 44.0628 51.0613 43.2414 51.2549 42.117L53.247 30.5547C53.3972 29.6837 53.0444 28.8023 52.3348 28.2753C51.6256 27.7484 50.6798 27.6652 49.8892 28.0605L44.8558 30.5772L41.3 28.2067C40.9064 27.9444 40.4531 27.8131 40 27.8131V44.063H48.9452V44.0628Z" fill="#FFC12E"/>
<path d="M51.1701 42.117L51.6424 39.3753H28.1877L28.6601 42.117C28.8538 43.2414 29.8288 44.0628 30.9698 44.0628H48.8603C50.0012 44.0628 50.9764 43.2414 51.1701 42.117Z" fill="#FFC12E"/>
<path d="M40 44.0628H48.9452C50.0861 44.0628 51.0613 43.2414 51.2548 42.117L51.7272 39.3753H40V44.0628Z" fill="#FF9300"/>
<path d="M42.1865 20.7673H37.8132C34.7978 20.7673 32.3445 18.3141 32.3445 15.2986V2.34375C32.3445 1.04937 33.3939 0 34.6882 0H45.3115C46.6059 0 47.6553 1.04937 47.6553 2.34375V15.2986C47.6553 18.3141 45.202 20.7673 42.1865 20.7673Z" fill="#FFF566"/>
<path d="M45.3115 0H39.9216V20.7673H42.1865C45.2019 20.7673 47.6552 18.3141 47.6552 15.2986V2.34375C47.6552 1.04937 46.606 0 45.3115 0Z" fill="#FFCF2C"/>
</svg>
