<svg id="Capa_1" enable-background="new 0 0 475.561 475.561" height="512" viewBox="0 0 475.561 475.561" width="512" xmlns="http://www.w3.org/2000/svg"><g><path d="m85.071 251.44 8.882-68.74c0-24.661 31.065-45.715 53.218-23.562l15.102 15.102z" fill="#ffcebf"/><path d="m162.271 174.237-10.13 10.14h-.01l-15.1-15.1c-12.05-12.05-26.73-11.32-37.62-4.17 9.89-15.02 31.29-22.44 47.76-5.97z" fill="#ffb09e"/><path d="m230.709 91.655 15.104 15.104-30.208 30.208-15.104-15.104c-8.337-8.337-8.337-21.857.007-30.201 4.172-4.172 9.638-6.258 15.097-6.258 5.474 0 10.932 2.079 15.104 6.251z" fill="#ffcebf"/><path d="m240.962 101.908 4.851 4.851-30.208 30.208-4.851-4.851c-8.337-8.337-8.337-21.857.007-30.201 4.172-4.172 9.638-6.258 15.097-6.258 5.474 0 10.933 2.079 15.104 6.251z" fill="#ffb09e"/><path d="m200.502 121.863 15.104 15.104-30.201 30.201-15.104-15.104c-8.337-8.337-8.337-21.857.007-30.201 4.165-4.165 9.631-6.251 15.097-6.258 5.466.007 10.925 2.086 15.097 6.258z" fill="#ffcebf"/><path d="m210.762 132.123 4.844 4.844-30.201 30.201-4.844-4.844c-8.344-8.344-8.344-21.864 0-30.208 4.165-4.165 9.631-6.251 15.097-6.258 5.466.007 10.932 2.093 15.104 6.265z" fill="#ffb09e"/><path d="m170.301 152.063 15.104 15.104-30.208 30.208-15.104-15.104c-8.337-8.337-8.33-21.864.007-30.201 4.172-4.172 9.638-6.258 15.104-6.265 5.467.007 10.925 2.086 15.097 6.258z" fill="#ffcebf"/><path d="m180.561 162.323 4.844 4.844-30.208 30.208-4.844-4.844c-8.344-8.344-8.337-21.871 0-30.208 4.172-4.172 9.638-6.258 15.104-6.265 5.467.007 10.933 2.093 15.104 6.265z" fill="#ffb09e"/><path d="m140.094 182.271 15.104 15.104-30.201 30.201-15.104-15.104c-8.337-8.337-8.337-21.857.007-30.201 4.172-4.172 9.631-6.251 15.097-6.258 5.466.007 10.925 2.086 15.097 6.258z" fill="#ffcebf"/><path d="m150.354 192.531 4.844 4.844-30.201 30.201-4.844-4.844c-8.344-8.344-8.344-21.864 0-30.208 4.172-4.172 9.631-6.251 15.097-6.258 5.466.007 10.932 2.093 15.104 6.265z" fill="#ffb09e"/><g fill="#ffcebf"><path d="m245.813 106.759 157.409 157.409-42.442 58.179-65.385 49.648c-6.341-6.341-12.477-13.12-19.495-18.731-8.035-6.432-17.288-11.507-27.04-14.807-12.926-4.384-24.664-11.681-34.309-21.326l-89.555-89.555z"/><path d="m229.748 106.759 120.816 120.816-89.555 89.555c-9.645 9.645-21.383 16.942-34.309 21.326-19.175 6.49-32.628 19.631-46.535 33.538l-56.494-45.018-51.333-62.809z"/><path d="m259.954 136.964 15.102-15.102c8.34-8.34 8.34-21.863 0-30.203-8.34-8.34-21.863-8.34-30.203 0l-15.102 15.102z"/><path d="m290.157 167.168 15.102-15.102c8.34-8.34 8.34-21.863 0-30.203-8.34-8.34-21.863-8.34-30.203 0l-15.102 15.102z"/><path d="m320.36 197.371 15.102-15.102c8.34-8.34 8.34-21.863 0-30.203-8.34-8.34-21.863-8.34-30.203 0l-15.102 15.102z"/><path d="m365.661 182.271c8.344 8.344 8.344 21.864.007 30.201l-15.104 15.104-30.201-30.201 15.104-15.104c4.172-4.172 9.631-6.251 15.097-6.258 1.86.007 3.712.248 5.523.728 3.507.934 6.823 2.779 9.574 5.53z"/></g><path d="m365.671 212.467-15.11 15.11-30.2-30.2 15.1 15.09 15.1-15.1c5.59-5.59 7.44-13.5 5.53-20.63 3.5.94 6.82 2.78 9.57 5.53 8.34 8.35 8.34 21.87.01 30.2z" fill="#ffb09e"/><path d="m373.871 250.157-26.22 5.79-24.869 5.488c-5.095 1.124-9.761 3.682-13.451 7.371l-48.321 48.321c-9.65 9.65-21.38 16.95-34.31 21.33-19.179 6.472-32.636 19.636-46.54 33.54l-9.38-4.14-5.71-10.96c13.9-13.9 27.356-27.07 46.53-33.54 12.92-4.39 24.66-11.69 34.3-21.33l42.584-42.575c5.637-5.636 5.637-14.774.001-20.41-10.845-10.845-21.728-24.916-36.964-29.424l-37.55-11.12c-23.358-4.227-20.202-39.86 4.04-39.86h53.29c.57 0 1.15.02 1.73.04 15.86.5 29.1 9.13 40.32 20.35l27.88 27.87c12.03 12.039 24.719 28.189 32.64 43.259z" fill="#ffb09e"/><path d="m328.7 179.025 27.874 27.874c12.035 12.035 24.72 28.185 32.64 43.261l-26.212 5.791-34.62 7.637-42.9-42.9c-13.571-13.571-38.381-16.929-56.166-22.196-23.803-4.26-19.717-39.853 4.045-39.852h53.288c.566 0 1.146.014 1.732.035 15.86.502 29.097 9.128 40.319 20.35z" fill="#ffcebf"/><path d="m328.7 179.025 27.874 27.874c12.035 12.035 24.72 28.185 32.64 43.261l14.008 14.008-42.442 58.179-65.385 49.648c-6.341-6.341-12.477-13.12-19.495-18.731l62.565-62.565 13.658-13.658c8.973-8.973 10.208-23.086 2.942-33.49-10.367-14.845-22.164-30.513-28.302-36.651l-27.874-27.874c-11.222-11.222-24.452-19.841-40.312-20.357-.29-.007 28.072-.028 28.072-.028.566 0 1.146.014 1.732.035 15.86.501 29.097 9.127 40.319 20.349z" fill="#ffb09e"/><g><path d="m237.781 43.494c-4.142 0-7.5-3.358-7.5-7.5v-15.333c0-4.142 3.358-7.5 7.5-7.5 4.143 0 7.5 3.358 7.5 7.5v15.333c0 4.142-3.358 7.5-7.5 7.5z" fill="#fff0ad"/></g><g><path d="m202.363 50.764c-2.89 0-5.644-1.68-6.875-4.497l-6.144-14.048c-1.66-3.795.071-8.217 3.866-9.877 3.795-1.661 8.217.071 9.877 3.866l6.144 14.048c1.66 3.795-.071 8.217-3.866 9.877-.979.428-1.999.631-3.002.631z" fill="#fff0ad"/></g><g><path d="m172.814 71.613c-1.821 0-3.647-.659-5.09-1.993l-11.258-10.41c-3.041-2.813-3.227-7.558-.415-10.599 2.813-3.042 7.556-3.228 10.599-.415l11.258 10.41c3.041 2.813 3.227 7.558.415 10.599-1.479 1.599-3.491 2.408-5.509 2.408z" fill="#fff0ad"/></g><g><path d="m273.199 50.764c-1.004 0-2.023-.203-3.001-.63-3.795-1.66-5.526-6.082-3.867-9.876l6.144-14.048c1.66-3.795 6.085-5.525 9.877-3.867 3.795 1.66 5.526 6.082 3.867 9.876l-6.144 14.048c-1.233 2.816-3.987 4.497-6.876 4.497z" fill="#fff0ad"/></g><g><path d="m302.746 71.613c-2.019 0-4.03-.81-5.509-2.408-2.813-3.042-2.626-7.787.415-10.599l11.259-10.41c3.041-2.813 7.786-2.626 10.599.415 2.813 3.042 2.626 7.787-.415 10.599l-11.259 10.41c-1.442 1.334-3.268 1.993-5.09 1.993z" fill="#fff0ad"/></g><path d="m403.222 264.168 51.732 51.732-55.507 62.457-70.386 63.436-45.506-45.506c-3.438-3.438-3.438-9.013 0-12.452z" fill="#ddeafb"/><path d="m454.95 315.897-55.503 62.46-70.386 63.44-14.01-14.01 125.899-125.89z" fill="#cbe2ff"/><path d="m454.954 315.9 18.028 18.028c3.438 3.438 3.438 9.013 0 12.452l-113.442 113.441c-3.438 3.438-9.013 3.438-12.452 0l-18.028-18.028z" fill="#ffd15b"/><path d="m472.98 346.387-113.44 113.43c-3.44 3.44-9.02 3.44-12.46 0l-11.47-11.48c3.45 3.34 8.94 3.3 12.34-.1l113.45-113.44c3.43-3.44 3.43-9.02 0-12.45l11.58 11.58c3.441 3.44 3.441 9.02 0 12.46z" fill="#ffc344"/><path d="m72.339 264.168 119.668 119.668c3.438 3.438 3.438 9.013 0 12.452l-45.507 45.505-64.22-56.886-61.673-69.007z" fill="#ddeafb"/><path d="m192.009 396.283-7.919 7.924-125.89-125.9 14.14-14.14 119.666 119.666c3.439 3.438 3.439 9.011.003 12.45z" fill="#cbe2ff"/><circle cx="146.5" cy="390.979" fill="#fff9df" r="8.452"/><path d="m20.607 315.9 125.893 125.893-18.028 18.028c-3.438 3.438-9.013 3.438-12.452 0l-113.441-113.442c-3.438-3.438-3.438-9.013 0-12.452z" fill="#528fd8"/><path d="m68.915 295.89h17.151v178.039h-17.151z" fill="#0473ce" transform="matrix(.707 -.707 .707 .707 -249.476 167.531)"/></g></svg>