<svg width="226" height="282" viewBox="0 0 226 282" fill="none" xmlns="http://www.w3.org/2000/svg">
<path d="M120 141.532C147.5 141.532 149.101 110.899 152.582 100.177H87.4177C88.6709 116.051 92.5 141.532 120 141.532Z" fill="#E9BD4C" stroke="#E9BD4C"/>
<path d="M152.502 99.7453C152.502 99.7453 152.502 99.7461 152.501 99.7477C152.501 99.7461 152.502 99.7453 152.502 99.7453ZM152.456 99.7078C152.478 99.7315 152.489 99.7487 152.495 99.7595C152.489 99.7703 152.478 99.7874 152.456 99.8112C152.395 99.8801 152.28 99.9726 152.086 100.08C151.7 100.295 151.098 100.519 150.277 100.74C148.643 101.18 146.255 101.582 143.278 101.921C137.33 102.599 129.1 103.019 120 103.019C110.9 103.019 102.67 102.599 96.7221 101.921C93.7449 101.582 91.3574 101.18 89.7233 100.74C88.9024 100.519 88.3002 100.295 87.9137 100.08C87.7201 99.9726 87.6051 99.8801 87.5436 99.8112C87.5224 99.7874 87.5109 99.7703 87.5047 99.7595C87.5109 99.7487 87.5224 99.7316 87.5436 99.7078C87.6051 99.6389 87.7201 99.5464 87.9137 99.4387C88.3002 99.2235 88.9024 99 89.7233 98.7789C91.3574 98.3388 93.7449 97.9371 96.7221 97.5979C102.67 96.9203 110.9 96.5 120 96.5C129.1 96.5 137.33 96.9203 143.278 97.5979C146.255 97.9371 148.643 98.3388 150.277 98.7789C151.098 99 151.7 99.2235 152.086 99.4387C152.28 99.5464 152.395 99.6389 152.456 99.7078ZM87.4983 99.7453C87.4983 99.7453 87.4986 99.7461 87.499 99.7477C87.4984 99.7461 87.4982 99.7453 87.4983 99.7453ZM87.4983 99.7737C87.4982 99.7737 87.4984 99.7729 87.499 99.7712C87.4986 99.7729 87.4983 99.7737 87.4983 99.7737ZM152.501 99.7713C152.502 99.7729 152.502 99.7737 152.502 99.7737C152.502 99.7737 152.501 99.7729 152.501 99.7713Z" fill="#272727" stroke="black"/>
<path fill-rule="evenodd" clip-rule="evenodd" d="M144 116.569V119.561C145.417 119.846 146.939 120 148.524 120C156.155 120 162.341 116.417 162.341 111.997C162.341 107.577 156.155 103.994 148.524 103.994C146.939 103.994 145.417 104.149 144 104.433V106.663C145.471 106.178 147.179 105.9 149 105.9C154.526 105.9 159.006 108.459 159.006 111.616C159.006 114.773 154.526 117.332 149 117.332C147.179 117.332 145.471 117.054 144 116.569Z" fill="#E9BD4C"/>
<path d="M25.875 41.1719C25.875 37.2344 26.625 33.5313 28.125 30.0625C29.625 26.5 31.6875 23.4531 34.3125 20.9219C36.9375 18.2969 39.9844 16.2344 43.4531 14.7344C47.0156 13.1406 50.7656 12.3438 54.7031 12.3438H164.109C168.047 12.3438 171.75 13.1406 175.219 14.7344C178.781 16.2344 181.875 18.2969 184.5 20.9219C187.125 23.4531 189.188 26.5 190.688 30.0625C192.188 33.5313 192.938 37.2344 192.938 41.1719V67.1875H164.109V41.1719H54.7031V185.172H164.109V159.297H192.938V185.172C192.938 189.109 192.188 192.859 190.688 196.422C189.188 199.891 187.125 202.938 184.5 205.562C181.875 208.188 178.781 210.25 175.219 211.75C171.75 213.25 168.047 214 164.109 214H54.7031C50.7656 214 47.0156 213.25 43.4531 211.75C39.9844 210.25 36.9375 208.188 34.3125 205.562C31.6875 202.938 29.625 199.891 28.125 196.422C26.625 192.859 25.875 189.109 25.875 185.172V41.1719Z" fill="#E9BD4C"/>
<path d="M27.875 41.1719C27.875 37.2344 28.625 33.5313 30.125 30.0625C31.625 26.5 33.6875 23.4531 36.3125 20.9219C38.9375 18.2969 41.9844 16.2344 45.4531 14.7344C49.0156 13.1406 52.7656 12.3438 56.7031 12.3438H166.109C170.047 12.3438 173.75 13.1406 177.219 14.7344C180.781 16.2344 183.875 18.2969 186.5 20.9219C189.125 23.4531 191.188 26.5 192.688 30.0625C194.188 33.5313 194.938 37.2344 194.938 41.1719V67.1875H166.109V41.1719H56.7031V185.172H166.109V159.297H194.938V185.172C194.938 189.109 194.188 192.859 192.688 196.422C191.188 199.891 189.125 202.938 186.5 205.562C183.875 208.188 180.781 210.25 177.219 211.75C173.75 213.25 170.047 214 166.109 214H56.7031C52.7656 214 49.0156 213.25 45.4531 211.75C41.9844 210.25 38.9375 208.188 36.3125 205.562C33.6875 202.938 31.625 199.891 30.125 196.422C28.625 192.859 27.875 189.109 27.875 185.172V41.1719Z" fill="black"/>
<path d="M29.875 41.1719C29.875 37.2344 30.625 33.5313 32.125 30.0625C33.625 26.5 35.6875 23.4531 38.3125 20.9219C40.9375 18.2969 43.9844 16.2344 47.4531 14.7344C51.0156 13.1406 54.7656 12.3438 58.7031 12.3438H168.109C172.047 12.3438 175.75 13.1406 179.219 14.7344C182.781 16.2344 185.875 18.2969 188.5 20.9219C191.125 23.4531 193.188 26.5 194.688 30.0625C196.188 33.5313 196.938 37.2344 196.938 41.1719V67.1875H168.109V41.1719H58.7031V185.172H168.109V159.297H196.938V185.172C196.938 189.109 196.188 192.859 194.688 196.422C193.188 199.891 191.125 202.938 188.5 205.562C185.875 208.188 182.781 210.25 179.219 211.75C175.75 213.25 172.047 214 168.109 214H58.7031C54.7656 214 51.0156 213.25 47.4531 211.75C43.9844 210.25 40.9375 208.188 38.3125 205.562C35.6875 202.938 33.625 199.891 32.125 196.422C30.625 192.859 29.875 189.109 29.875 185.172V41.1719Z" fill="#AEABAB"/>
<path d="M33.875 41.1719C33.875 37.2344 34.625 33.5313 36.125 30.0625C37.625 26.5 39.6875 23.4531 42.3125 20.9219C44.9375 18.2969 47.9844 16.2344 51.4531 14.7344C55.0156 13.1406 58.7656 12.3438 62.7031 12.3438H172.109C176.047 12.3438 179.75 13.1406 183.219 14.7344C186.781 16.2344 189.875 18.2969 192.5 20.9219C195.125 23.4531 197.188 26.5 198.688 30.0625C200.188 33.5313 200.938 37.2344 200.938 41.1719V67.1875H172.109V41.1719H62.7031V185.172H172.109V159.297H200.938V185.172C200.938 189.109 200.188 192.859 198.688 196.422C197.188 199.891 195.125 202.938 192.5 205.562C189.875 208.188 186.781 210.25 183.219 211.75C179.75 213.25 176.047 214 172.109 214H62.7031C58.7656 214 55.0156 213.25 51.4531 211.75C47.9844 210.25 44.9375 208.188 42.3125 205.562C39.6875 202.938 37.625 199.891 36.125 196.422C34.625 192.859 33.875 189.109 33.875 185.172V41.1719Z" fill="black"/>
<path d="M37.875 41.1719C37.875 37.2344 38.625 33.5313 40.125 30.0625C41.625 26.5 43.6875 23.4531 46.3125 20.9219C48.9375 18.2969 51.9844 16.2344 55.4531 14.7344C59.0156 13.1406 62.7656 12.3438 66.7031 12.3438H176.109C180.047 12.3438 183.75 13.1406 187.219 14.7344C190.781 16.2344 193.875 18.2969 196.5 20.9219C199.125 23.4531 201.188 26.5 202.688 30.0625C204.188 33.5313 204.938 37.2344 204.938 41.1719V67.1875H176.109V41.1719H66.7031V185.172H176.109V159.297H204.938V185.172C204.938 189.109 204.188 192.859 202.688 196.422C201.188 199.891 199.125 202.938 196.5 205.562C193.875 208.188 190.781 210.25 187.219 211.75C183.75 213.25 180.047 214 176.109 214H66.7031C62.7656 214 59.0156 213.25 55.4531 211.75C51.9844 210.25 48.9375 208.188 46.3125 205.562C43.6875 202.938 41.625 199.891 40.125 196.422C38.625 192.859 37.875 189.109 37.875 185.172V41.1719Z" fill="#E9BD4C"/>
</svg>
